<svg xmlns="http://www.w3.org/2000/svg" width="16" height="16" viewBox="0 0 16 16" fill="none">
  <path d="M1.3335 14.0007V12.6673H7.3335V5.21732C7.04461 5.11732 6.79461 4.96176 6.5835 4.75065C6.37238 4.53954 6.21683 4.28954 6.11683 4.00065H4.00016L6.00016 8.66732C6.00016 9.22287 5.77238 9.6951 5.31683 10.084C4.86127 10.4729 4.31127 10.6673 3.66683 10.6673C3.02238 10.6673 2.47238 10.4729 2.01683 10.084C1.56127 9.6951 1.3335 9.22287 1.3335 8.66732L3.3335 4.00065H2.00016V2.66732H6.11683C6.25016 2.27843 6.48905 1.95898 6.8335 1.70898C7.17794 1.45898 7.56683 1.33398 8.00016 1.33398C8.4335 1.33398 8.82238 1.45898 9.16683 1.70898C9.51127 1.95898 9.75016 2.27843 9.8835 2.66732H14.0002V4.00065H12.6668L14.6668 8.66732C14.6668 9.22287 14.4391 9.6951 13.9835 10.084C13.5279 10.4729 12.9779 10.6673 12.3335 10.6673C11.6891 10.6673 11.1391 10.4729 10.6835 10.084C10.2279 9.6951 10.0002 9.22287 10.0002 8.66732L12.0002 4.00065H9.8835C9.7835 4.28954 9.62794 4.53954 9.41683 4.75065C9.20572 4.96176 8.95572 5.11732 8.66683 5.21732V12.6673H14.6668V14.0007H1.3335ZM11.0835 8.66732H13.5835L12.3335 5.76732L11.0835 8.66732ZM2.41683 8.66732H4.91683L3.66683 5.76732L2.41683 8.66732ZM8.00016 4.00065C8.18905 4.00065 8.34738 3.93676 8.47516 3.80898C8.60294 3.68121 8.66683 3.52287 8.66683 3.33398C8.66683 3.1451 8.60294 2.98676 8.47516 2.85898C8.34738 2.73121 8.18905 2.66732 8.00016 2.66732C7.81127 2.66732 7.65294 2.73121 7.52516 2.85898C7.39738 2.98676 7.3335 3.1451 7.3335 3.33398C7.3335 3.52287 7.39738 3.68121 7.52516 3.80898C7.65294 3.93676 7.81127 4.00065 8.00016 4.00065Z" fill="white"/>
</svg>
