
<svg width="24" height="24" viewBox="0 0 24 24" fill="none" xmlns="http://www.w3.org/2000/svg">
<g id="metamask-icon.c8b2298e68e585a7f4d9c7b7e6320715">
<g clip-path="url(#clip0_254_10947)">
<path id="Vector" d="M24 0H0V24H24V0Z" fill="#F7F9FB"/>
<path id="Vector_2" d="M19.6126 4L13.2333 8.73802L14.4129 5.94266L19.6126 4Z" fill="#E2761B" stroke="#E2761B" stroke-width="0.106857" stroke-linecap="round" stroke-linejoin="round"/>
<path id="Vector_3" d="M4.88597 4L11.214 8.7829L10.092 5.94266L4.88597 4ZM17.3177 14.9828L15.6186 17.5858L19.2539 18.5859L20.299 15.0404L17.3177 14.9828ZM4.21277 15.0404L5.25142 18.5859L8.88671 17.5858L7.18769 14.9828L4.21277 15.0404Z" fill="#E4761B" stroke="#E4761B" stroke-width="0.106857" stroke-linecap="round" stroke-linejoin="round"/>
<path id="Vector_4" d="M8.6818 10.5847L7.66882 12.117L11.2784 12.2773L11.1502 8.3984L8.6818 10.5847ZM15.8177 10.5847L13.3173 8.35352L13.2339 12.2773L16.8371 12.117L15.8177 10.5847ZM8.887 17.5859L11.054 16.528L9.1819 15.0663L8.887 17.5859ZM13.4455 16.528L15.6189 17.5859L15.3176 15.0663L13.4455 16.528Z" fill="#E4761B" stroke="#E4761B" stroke-width="0.106857" stroke-linecap="round" stroke-linejoin="round"/>
<path id="Vector_5" d="M15.619 17.5862L13.4455 16.5283L13.6186 17.9452L13.5994 18.5415L15.619 17.5862ZM8.88696 17.5862L10.9066 18.5415L10.8937 17.9452L11.054 16.5283L8.88696 17.5862Z" fill="#D7C1B3" stroke="#D7C1B3" stroke-width="0.106857" stroke-linecap="round" stroke-linejoin="round"/>
<path id="Vector_6" d="M10.9391 14.1302L9.1311 13.5981L10.407 13.0146L10.9391 14.1302ZM13.5614 14.1302L14.0935 13.0146L15.3758 13.5981L13.5614 14.1302Z" fill="#233447" stroke="#233447" stroke-width="0.106857" stroke-linecap="round" stroke-linejoin="round"/>
<path id="Vector_7" d="M8.8864 17.5852L9.1942 14.9821L7.18738 15.0398L8.8864 17.5852ZM15.3107 14.9821L15.6184 17.5852L17.3174 15.0398L15.3107 14.9821ZM16.8366 12.1162L13.2333 12.2765L13.5668 14.1294L14.0989 13.0138L15.3812 13.5973L16.8366 12.1162ZM9.13006 13.5973L10.4123 13.0138L10.9381 14.1294L11.2779 12.2765L7.66828 12.1162L9.13006 13.5973Z" fill="#CD6116" stroke="#CD6116" stroke-width="0.106857" stroke-linecap="round" stroke-linejoin="round"/>
<path id="Vector_8" d="M7.66882 12.1162L9.1819 15.0655L9.1306 13.5973L7.66882 12.1162ZM15.3817 13.5973L15.3176 15.0655L16.8371 12.1162L15.3817 13.5973ZM11.2784 12.2765L10.9386 14.1294L11.3618 16.3157L11.4579 13.437L11.2784 12.2765ZM13.2339 12.2765L13.0608 13.4306L13.1378 16.3157L13.5673 14.1294L13.2339 12.2765Z" fill="#E4751F" stroke="#E4751F" stroke-width="0.106857" stroke-linecap="round" stroke-linejoin="round"/>
<path id="Vector_9" d="M13.5678 14.1298L13.1383 16.3161L13.446 16.5277L15.3181 15.0659L15.3822 13.5977L13.5678 14.1298ZM9.1311 13.5977L9.1824 15.0659L11.0545 16.5277L11.3623 16.3161L10.9391 14.1298L9.1311 13.5977Z" fill="#F6851B" stroke="#F6851B" stroke-width="0.106857" stroke-linecap="round" stroke-linejoin="round"/>
<path id="Vector_10" d="M13.5994 18.5412L13.6186 17.945L13.4583 17.8039H11.0412L10.8937 17.945L10.9066 18.5412L8.88696 17.5859L9.5922 18.163L11.0219 19.1567H13.4775L14.9137 18.163L15.619 17.5859L13.5994 18.5412Z" fill="#C0AD9E" stroke="#C0AD9E" stroke-width="0.106857" stroke-linecap="round" stroke-linejoin="round"/>
<path id="Vector_11" d="M13.4454 16.528L13.1377 16.3164H11.3617L11.054 16.528L10.8937 17.9449L11.0412 17.8039H13.4583L13.6185 17.9449L13.4454 16.528Z" fill="#161616" stroke="#161616" stroke-width="0.106857" stroke-linecap="round" stroke-linejoin="round"/>
<path id="Vector_12" d="M19.8823 9.04576L20.4272 6.42994L19.613 4L13.4452 8.57776L15.8174 10.5845L19.1706 11.5655L19.9143 10.6999L19.5937 10.4691L20.1067 10.0011L19.7092 9.69334L20.222 9.30226L19.8823 9.04576ZM4.07812 6.42994L4.62309 9.04576L4.27688 9.30226L4.78979 9.69334L4.39869 10.0011L4.9116 10.4691L4.59104 10.6999L5.32835 11.5655L8.68152 10.5845L11.0537 8.57776L4.88596 4L4.07812 6.42994Z" fill="#763D16" stroke="#763D16" stroke-width="0.106857" stroke-linecap="round" stroke-linejoin="round"/>
<path id="Vector_13" d="M19.1706 11.5661L15.8174 10.5852L16.8368 12.1175L15.3173 15.0668L17.3177 15.0412H20.299L19.1706 11.5661ZM8.68151 10.5852L5.32835 11.5661L4.21277 15.0412H7.18769L9.18161 15.0668L7.66853 12.1175L8.68151 10.5852ZM13.2337 12.2778L13.4452 8.57845L14.4197 5.94336H10.092L11.0537 8.57845L11.2781 12.2778L11.3551 13.4447L11.3615 16.317H13.1375L13.1502 13.4447L13.2337 12.2778Z" fill="#F6851B" stroke="#F6851B" stroke-width="0.106857" stroke-linecap="round" stroke-linejoin="round"/>
</g>
</g>
<defs>
<clipPath id="clip0_254_10947">
<rect width="24" height="24" rx="12" fill="white"/>
</clipPath>
</defs>
</svg>
