
<svg width="24" height="24" viewBox="0 0 24 24" fill="none" xmlns="http://www.w3.org/2000/svg">
<g id="walletconnect-icon.bd207ef6f3632304cd1b6e772271cb43">
<g clip-path="url(#clip0_254_10961)">
<path id="Vector" d="M24 0H0V24H24V0Z" fill="#3396FF"/>
<path id="Vector_2" d="M12 24C18.6274 24 24 18.6274 24 12C24 5.37258 18.6274 0 12 0C5.37258 0 0 5.37258 0 12C0 18.6274 5.37258 24 12 24Z" fill="#3396FF"/>
<path id="Vector_3" d="M7.33964 8.93034C9.91352 6.42036 14.0868 6.42036 16.6606 8.93034L16.9704 9.23244C17.0991 9.3579 17.0991 9.56136 16.9704 9.68688L15.9108 10.7203C15.8464 10.783 15.7421 10.783 15.6777 10.7203L15.2514 10.3045C13.4558 8.55348 10.5445 8.55348 8.7488 10.3045L8.29226 10.7497C8.22794 10.8125 8.1236 10.8125 8.05928 10.7497L6.99962 9.71634C6.87086 9.59088 6.87086 9.38736 6.99962 9.2619L7.33964 8.93034ZM18.8522 11.0674L19.7953 11.9871C19.924 12.1126 19.924 12.3161 19.7953 12.4415L15.5427 16.5886C15.414 16.7141 15.2053 16.7141 15.0766 16.5886L12.0584 13.6454C12.0262 13.6139 11.9741 13.6139 11.9419 13.6454L8.9237 16.5886C8.795 16.7141 8.58638 16.7141 8.45762 16.5886L4.20492 12.4415C4.07622 12.316 4.07622 12.1126 4.20492 11.9871L5.14805 11.0674C5.27675 10.9419 5.4854 10.9419 5.6141 11.0674L8.6324 14.0107C8.66456 14.042 8.7167 14.042 8.74886 14.0107L11.767 11.0674C11.8957 10.9418 12.1044 10.9418 12.2331 11.0674L15.2514 14.0107C15.2836 14.042 15.3357 14.042 15.3679 14.0107L18.3862 11.0674C18.5148 10.9419 18.7235 10.9419 18.8522 11.0674Z" fill="white"/>
</g>
</g>
<defs>
<clipPath id="clip0_254_10961">
<rect width="24" height="24" rx="12" fill="white"/>
</clipPath>
</defs>
</svg>
