<svg width="24" height="24" viewBox="0 0 24 24" fill="none" xmlns="http://www.w3.org/2000/svg">
<g clip-path="url(#clip0_260_11788)">
<path d="M23.6407 14.9029C22.0378 21.3315 15.5259 25.2438 9.09581 23.6407C2.66839 22.038 -1.24439 15.5265 0.359179 9.09837C1.96134 2.66903 8.47324 -1.24361 14.9014 0.359081C21.331 1.96177 25.2436 8.47404 23.6405 14.903L23.6406 14.9029H23.6407Z" fill="#F7931A"/>
<path d="M17.2921 10.2894C17.531 8.69242 16.315 7.834 14.6523 7.26136L15.1917 5.09816L13.8748 4.77005L13.3497 6.87629C13.0035 6.78995 12.6479 6.70859 12.2945 6.62794L12.8234 4.5078L11.5073 4.17969L10.9676 6.34218C10.6811 6.27695 10.3997 6.21249 10.1267 6.14457L10.1282 6.13776L8.31212 5.6843L7.9618 7.09073C7.9618 7.09073 8.93886 7.31467 8.91827 7.32846C9.45156 7.46155 9.548 7.81453 9.53199 8.09432L8.91757 10.5587C8.95429 10.568 9.00192 10.5815 9.05448 10.6026C9.01055 10.5917 8.96379 10.5798 8.91528 10.5682L8.05407 14.0205C7.9889 14.1825 7.82347 14.4256 7.45062 14.3333C7.46382 14.3524 6.49344 14.0944 6.49344 14.0944L5.8396 15.6017L7.5534 16.0289C7.87222 16.1089 8.18465 16.1925 8.49233 16.2712L7.94737 18.4592L9.26279 18.7873L9.80248 16.6225C10.1618 16.72 10.5106 16.81 10.852 16.8948L10.3141 19.0494L11.6311 19.3775L12.176 17.1936C14.4217 17.6186 16.1103 17.4472 16.821 15.4163C17.3937 13.7811 16.7925 12.8379 15.6111 12.2229C16.4716 12.0244 17.1197 11.4585 17.2926 10.2895L17.2921 10.2892L17.2921 10.2894ZM14.2832 14.5082C13.8762 16.1433 11.1227 15.2594 10.23 15.0378L10.9532 12.139C11.8458 12.3619 14.7085 12.8028 14.2832 14.5082H14.2832ZM14.6904 10.2657C14.3192 11.753 12.0274 10.9974 11.284 10.8121L11.9397 8.18312C12.6831 8.36841 15.0772 8.71424 14.6906 10.2657H14.6904Z" fill="white"/>
</g>
<defs>
<clipPath id="clip0_260_11788">
<rect width="24" height="24" fill="white"/>
</clipPath>
</defs>
</svg>
