<svg width="12" height="12" viewBox="0 0 12 12" fill="none" xmlns="http://www.w3.org/2000/svg">
<path d="M0.5 10.5L6 1L11.5 10.5H0.5ZM2.225 9.5H9.775L6 3L2.225 9.5ZM6 9C6.14167 9 6.26042 8.95208 6.35625 8.85625C6.45208 8.76042 6.5 8.64167 6.5 8.5C6.5 8.35833 6.45208 8.23958 6.35625 8.14375C6.26042 8.04792 6.14167 8 6 8C5.85833 8 5.73958 8.04792 5.64375 8.14375C5.54792 8.23958 5.5 8.35833 5.5 8.5C5.5 8.64167 5.54792 8.76042 5.64375 8.85625C5.73958 8.95208 5.85833 9 6 9ZM5.5 7.5H6.5V5H5.5V7.5Z" fill="#FFC107"/>
</svg>
