<svg width="25" height="24" viewBox="0 0 25 24" fill="none" xmlns="http://www.w3.org/2000/svg">
<path id="Vector" d="M11.69 18H13.49V10.8H11.69V18ZM12.4995 8.58C12.7798 8.58 13.015 8.488 13.205 8.304C13.395 8.12 13.49 7.892 13.49 7.62C13.49 7.331 13.3952 7.08875 13.2055 6.89325C13.0159 6.69775 12.7809 6.6 12.5005 6.6C12.2202 6.6 11.985 6.69775 11.795 6.89325C11.605 7.08875 11.51 7.331 11.51 7.62C11.51 7.892 11.6048 8.12 11.7945 8.304C11.9841 8.488 12.2191 8.58 12.4995 8.58ZM12.508 24C10.8533 24 9.2983 23.685 7.84298 23.055C6.38766 22.425 5.115 21.565 4.025 20.475C2.935 19.385 2.075 18.1116 1.445 16.6548C0.815 15.198 0.5 13.6414 0.5 11.985C0.5 10.3286 0.815 8.77203 1.445 7.31523C2.075 5.85841 2.935 4.59 4.025 3.51C5.115 2.43 6.38841 1.575 7.84523 0.945C9.30203 0.315 10.8586 0 12.515 0C14.1714 0 15.728 0.315 17.1848 0.945C18.6416 1.575 19.91 2.43 20.99 3.51C22.07 4.59 22.925 5.86 23.555 7.32C24.185 8.78 24.5 10.3373 24.5 11.992C24.5 13.6467 24.185 15.2017 23.555 16.657C22.925 18.1123 22.07 19.3832 20.99 20.4695C19.91 21.5558 18.64 22.4158 17.18 23.0495C15.72 23.6832 14.1627 24 12.508 24ZM12.515 22.2C15.345 22.2 17.75 21.205 19.73 19.215C21.71 17.225 22.7 14.815 22.7 11.985C22.7 9.155 21.7119 6.75 19.7356 4.77C17.7594 2.79 15.3475 1.8 12.5 1.8C9.68 1.8 7.275 2.78812 5.285 4.76436C3.295 6.74062 2.3 9.1525 2.3 12C2.3 14.82 3.295 17.225 5.285 19.215C7.275 21.205 9.685 22.2 12.515 22.2Z" fill="#2196F3"/>
</svg>
