<svg width="124" height="125" viewBox="0 0 124 125" fill="none" xmlns="http://www.w3.org/2000/svg">
<g filter="url(#filter0_d_265_11757)">
<rect x="50" y="45.5" width="24" height="24" rx="4" fill="white" fill-opacity="0.05" shape-rendering="crispEdges"/>
<rect x="50.5" y="46" width="23" height="23" rx="3.5" stroke="white" stroke-opacity="0.15" shape-rendering="crispEdges"/>
<g clip-path="url(#clip0_265_11757)">
<path d="M61.9985 49.5L61.8911 49.8646V60.4441L61.9985 60.5512L66.9092 57.6484L61.9985 49.5Z" fill="#343434"/>
<path d="M61.9985 49.5L57.0876 57.6484L61.9985 60.5512V55.4162V49.5Z" fill="#8C8C8C"/>
<path d="M61.9985 61.4814L61.938 61.5551V65.3237L61.9985 65.5003L66.9123 58.5801L61.9985 61.4814Z" fill="#3C3C3B"/>
<path d="M61.9985 65.5003V61.4814L57.0876 58.5801L61.9985 65.5003Z" fill="#8C8C8C"/>
<path d="M61.9985 60.551L66.9093 57.6482L61.9985 55.416V60.551Z" fill="#141414"/>
<path d="M57.0876 57.6482L61.9985 60.551V55.416L57.0876 57.6482Z" fill="#393939"/>
</g>
</g>
<defs>
<filter id="filter0_d_265_11757" x="0" y="0.5" width="124" height="124" filterUnits="userSpaceOnUse" color-interpolation-filters="sRGB">
<feFlood flood-opacity="0" result="BackgroundImageFix"/>
<feColorMatrix in="SourceAlpha" type="matrix" values="0 0 0 0 0 0 0 0 0 0 0 0 0 0 0 0 0 0 127 0" result="hardAlpha"/>
<feOffset dy="5"/>
<feGaussianBlur stdDeviation="25"/>
<feComposite in2="hardAlpha" operator="out"/>
<feColorMatrix type="matrix" values="0 0 0 0 0 0 0 0 0 0 0 0 0 0 0 0 0 0 1 0"/>
<feBlend mode="normal" in2="BackgroundImageFix" result="effect1_dropShadow_265_11757"/>
<feBlend mode="normal" in="SourceGraphic" in2="effect1_dropShadow_265_11757" result="shape"/>
</filter>
<clipPath id="clip0_265_11757">
<rect width="9.82466" height="16" fill="white" transform="translate(57.0876 49.5)"/>
</clipPath>
</defs>
</svg>
