<svg width="16" height="16" viewBox="0 0 16 16" fill="none" xmlns="http://www.w3.org/2000/svg">
<path d="M4.00016 13.3337C3.26683 13.3337 2.63905 13.0725 2.11683 12.5503C1.59461 12.0281 1.3335 11.4003 1.3335 10.667V5.33366C1.3335 4.60033 1.59461 3.97255 2.11683 3.45033C2.63905 2.9281 3.26683 2.66699 4.00016 2.66699H12.0002C12.7335 2.66699 13.3613 2.9281 13.8835 3.45033C14.4057 3.97255 14.6668 4.60033 14.6668 5.33366V10.667C14.6668 11.4003 14.4057 12.0281 13.8835 12.5503C13.3613 13.0725 12.7335 13.3337 12.0002 13.3337H4.00016ZM4.00016 5.33366H12.0002C12.2446 5.33366 12.4779 5.36144 12.7002 5.41699C12.9224 5.47255 13.1335 5.56144 13.3335 5.68366V5.33366C13.3335 4.96699 13.2029 4.6531 12.9418 4.39199C12.6807 4.13088 12.3668 4.00033 12.0002 4.00033H4.00016C3.6335 4.00033 3.31961 4.13088 3.0585 4.39199C2.79738 4.6531 2.66683 4.96699 2.66683 5.33366V5.68366C2.86683 5.56144 3.07794 5.47255 3.30016 5.41699C3.52238 5.36144 3.75572 5.33366 4.00016 5.33366ZM2.76683 7.50033L10.1835 9.30033C10.2835 9.32255 10.3835 9.32255 10.4835 9.30033C10.5835 9.2781 10.6779 9.23366 10.7668 9.16699L13.0835 7.23366C12.9613 7.06699 12.8057 6.93088 12.6168 6.82533C12.4279 6.71977 12.2224 6.66699 12.0002 6.66699H4.00016C3.71127 6.66699 3.4585 6.74199 3.24183 6.89199C3.02516 7.04199 2.86683 7.24477 2.76683 7.50033Z" fill="white"/>
</svg>
