<svg width="80" height="80" viewBox="0 0 80 80" fill="none" xmlns="http://www.w3.org/2000/svg">
<path d="M39.5833 66.667C39.8055 66.667 40.0278 66.6114 40.25 66.5003C40.4722 66.3892 40.6389 66.2781 40.75 66.167L68.0833 38.8337C68.75 38.167 69.2361 37.417 69.5417 36.5837C69.8472 35.7503 70 34.917 70 34.0837C70 33.1948 69.8472 32.3475 69.5417 31.542C69.2361 30.7364 68.75 30.0281 68.0833 29.417L53.9167 15.2503C53.3055 14.5837 52.5972 14.0975 51.7917 13.792C50.9861 13.4864 50.1389 13.3337 49.25 13.3337C48.4167 13.3337 47.5833 13.4864 46.75 13.792C45.9167 14.0975 45.1667 14.5837 44.5 15.2503L43.5833 16.167L49.75 22.417C50.5833 23.1948 51.1944 24.0837 51.5833 25.0837C51.9722 26.0837 52.1667 27.1392 52.1667 28.2503C52.1667 30.5837 51.375 32.542 49.7917 34.1253C48.2083 35.7087 46.25 36.5003 43.9167 36.5003C42.8055 36.5003 41.7361 36.3059 40.7083 35.917C39.6805 35.5281 38.7778 34.9448 38 34.167L31.75 28.0003L17.1667 42.5837C17 42.7503 16.875 42.9309 16.7917 43.1253C16.7083 43.3198 16.6667 43.5281 16.6667 43.7503C16.6667 44.1948 16.8333 44.5975 17.1667 44.9587C17.5 45.3198 17.8889 45.5003 18.3333 45.5003C18.5555 45.5003 18.7778 45.4448 19 45.3337C19.2222 45.2225 19.3889 45.1114 19.5 45.0003L30.8333 33.667L35.5 38.3337L24.25 49.667C24.0833 49.8337 23.9583 50.0142 23.875 50.2087C23.7917 50.4031 23.75 50.6114 23.75 50.8337C23.75 51.2781 23.9167 51.667 24.25 52.0003C24.5833 52.3337 24.9722 52.5003 25.4167 52.5003C25.6389 52.5003 25.8611 52.4448 26.0833 52.3337C26.3055 52.2225 26.4722 52.1114 26.5833 52.0003L37.9167 40.7503L42.5833 45.417L31.3333 56.7503C31.1667 56.8614 31.0417 57.0281 30.9583 57.2503C30.875 57.4725 30.8333 57.6948 30.8333 57.917C30.8333 58.3614 31 58.7503 31.3333 59.0837C31.6667 59.417 32.0555 59.5837 32.5 59.5837C32.7222 59.5837 32.9305 59.542 33.125 59.4587C33.3194 59.3753 33.5 59.2503 33.6667 59.0837L45 47.8337L49.6667 52.5003L38.3333 63.8337C38.1667 64.0003 38.0417 64.1809 37.9583 64.3753C37.875 64.5698 37.8333 64.7781 37.8333 65.0003C37.8333 65.4448 38.0139 65.8337 38.375 66.167C38.7361 66.5003 39.1389 66.667 39.5833 66.667ZM39.5 73.3337C37.4444 73.3337 35.625 72.6531 34.0417 71.292C32.4583 69.9309 31.5278 68.2225 31.25 66.167C29.3611 65.8892 27.7778 65.1114 26.5 63.8337C25.2222 62.5559 24.4444 60.9725 24.1667 59.0837C22.2778 58.8059 20.7083 58.0142 19.4583 56.7087C18.2083 55.4031 17.4444 53.8337 17.1667 52.0003C15.0555 51.7225 13.3333 50.8059 12 49.2503C10.6667 47.6948 9.99999 45.8614 9.99999 43.7503C9.99999 42.6392 10.2083 41.5698 10.625 40.542C11.0417 39.5142 11.6389 38.6114 12.4167 37.8337L31.75 18.5837L42.6667 29.5003C42.7778 29.667 42.9444 29.792 43.1667 29.8753C43.3889 29.9587 43.6111 30.0003 43.8333 30.0003C44.3333 30.0003 44.75 29.8475 45.0833 29.542C45.4167 29.2364 45.5833 28.8337 45.5833 28.3337C45.5833 28.1114 45.5417 27.8892 45.4583 27.667C45.375 27.4448 45.25 27.2781 45.0833 27.167L33.1667 15.2503C32.5555 14.5837 31.8472 14.0975 31.0417 13.792C30.2361 13.4864 29.3889 13.3337 28.5 13.3337C27.6667 13.3337 26.8333 13.4864 26 13.792C25.1667 14.0975 24.4167 14.5837 23.75 15.2503L12 27.0837C11.5 27.5837 11.0833 28.167 10.75 28.8337C10.4167 29.5003 10.1944 30.167 10.0833 30.8337C9.97221 31.5003 9.97221 32.1809 10.0833 32.8753C10.1944 33.5698 10.4167 34.2225 10.75 34.8337L5.91665 39.667C4.97221 38.3892 4.27777 36.9864 3.83332 35.4587C3.38888 33.9309 3.22221 32.3892 3.33332 30.8337C3.44443 29.2781 3.83332 27.7642 4.49999 26.292C5.16665 24.8198 6.08332 23.5003 7.24999 22.3337L19 10.5837C20.3333 9.30588 21.8194 8.33366 23.4583 7.66699C25.0972 7.00033 26.7778 6.66699 28.5 6.66699C30.2222 6.66699 31.9028 7.00033 33.5417 7.66699C35.1805 8.33366 36.6389 9.30588 37.9167 10.5837L38.8333 11.5003L39.75 10.5837C41.0833 9.30588 42.5694 8.33366 44.2083 7.66699C45.8472 7.00033 47.5278 6.66699 49.25 6.66699C50.9722 6.66699 52.6528 7.00033 54.2917 7.66699C55.9305 8.33366 57.3889 9.30588 58.6667 10.5837L72.75 24.667C74.0278 25.9448 75 27.417 75.6667 29.0837C76.3333 30.7503 76.6667 32.4448 76.6667 34.167C76.6667 35.8892 76.3333 37.5698 75.6667 39.2087C75 40.8475 74.0278 42.3059 72.75 43.5837L45.4167 70.8337C44.6389 71.6114 43.7361 72.2225 42.7083 72.667C41.6805 73.1114 40.6111 73.3337 39.5 73.3337Z" fill="url(#paint0_linear_258_11248)"/>
<defs>
<linearGradient id="paint0_linear_258_11248" x1="3.29999" y1="7.02059" x2="75.7227" y2="74.3489" gradientUnits="userSpaceOnUse">
<stop stop-color="#DA301F"/>
<stop offset="0.182292" stop-color="#F48946"/>
<stop offset="0.354167" stop-color="#EE3560"/>
<stop offset="0.515625" stop-color="#FA4784"/>
<stop offset="0.666667" stop-color="#FF48C0"/>
<stop offset="0.817708" stop-color="#8E38B5"/>
<stop offset="0.890625" stop-color="#5542BB"/>
<stop offset="1" stop-color="#0051C4"/>
</linearGradient>
</defs>
</svg>
