<svg xmlns="http://www.w3.org/2000/svg" width="16" height="16" viewBox="0 0 16 16" fill="none">
  <path d="M7.40016 12.6673H8.56683V11.834C9.12238 11.734 9.60016 11.5173 10.0002 11.184C10.4002 10.8507 10.6002 10.3562 10.6002 9.70065C10.6002 9.23398 10.4668 8.80621 10.2002 8.41732C9.9335 8.02843 9.40016 7.68954 8.60016 7.40065C7.9335 7.17843 7.47238 6.98398 7.21683 6.81732C6.96127 6.65065 6.8335 6.42287 6.8335 6.13398C6.8335 5.8451 6.93627 5.61732 7.14183 5.45065C7.34738 5.28398 7.64461 5.20065 8.0335 5.20065C8.38905 5.20065 8.66683 5.28676 8.86683 5.45898C9.06683 5.63121 9.21127 5.8451 9.30016 6.10065L10.3668 5.66732C10.2446 5.27843 10.0196 4.93954 9.69183 4.65065C9.36405 4.36176 9.00016 4.20065 8.60016 4.16732V3.33398H7.4335V4.16732C6.87794 4.28954 6.44461 4.53398 6.1335 4.90065C5.82238 5.26732 5.66683 5.67843 5.66683 6.13398C5.66683 6.65621 5.81961 7.07843 6.12516 7.40065C6.43072 7.72287 6.91127 8.00065 7.56683 8.23398C8.26683 8.48954 8.75294 8.71732 9.02516 8.91732C9.29738 9.11732 9.4335 9.37843 9.4335 9.70065C9.4335 10.0673 9.30294 10.3368 9.04183 10.509C8.78072 10.6812 8.46683 10.7673 8.10016 10.7673C7.7335 10.7673 7.4085 10.6534 7.12516 10.4257C6.84183 10.1979 6.6335 9.85621 6.50016 9.40065L5.40016 9.83398C5.55572 10.3673 5.79738 10.7979 6.12516 11.1257C6.45294 11.4534 6.87794 11.6784 7.40016 11.8007V12.6673ZM8.00016 14.6673C7.07794 14.6673 6.21127 14.4923 5.40016 14.1423C4.58905 13.7923 3.8835 13.3173 3.2835 12.7173C2.6835 12.1173 2.2085 11.4118 1.8585 10.6007C1.5085 9.78954 1.3335 8.92287 1.3335 8.00065C1.3335 7.07843 1.5085 6.21176 1.8585 5.40065C2.2085 4.58954 2.6835 3.88398 3.2835 3.28398C3.8835 2.68398 4.58905 2.20898 5.40016 1.85898C6.21127 1.50898 7.07794 1.33398 8.00016 1.33398C8.92238 1.33398 9.78905 1.50898 10.6002 1.85898C11.4113 2.20898 12.1168 2.68398 12.7168 3.28398C13.3168 3.88398 13.7918 4.58954 14.1418 5.40065C14.4918 6.21176 14.6668 7.07843 14.6668 8.00065C14.6668 8.92287 14.4918 9.78954 14.1418 10.6007C13.7918 11.4118 13.3168 12.1173 12.7168 12.7173C12.1168 13.3173 11.4113 13.7923 10.6002 14.1423C9.78905 14.4923 8.92238 14.6673 8.00016 14.6673ZM8.00016 13.334C9.48905 13.334 10.7502 12.8173 11.7835 11.784C12.8168 10.7507 13.3335 9.48954 13.3335 8.00065C13.3335 6.51176 12.8168 5.25065 11.7835 4.21732C10.7502 3.18398 9.48905 2.66732 8.00016 2.66732C6.51127 2.66732 5.25016 3.18398 4.21683 4.21732C3.1835 5.25065 2.66683 6.51176 2.66683 8.00065C2.66683 9.48954 3.1835 10.7507 4.21683 11.784C5.25016 12.8173 6.51127 13.334 8.00016 13.334Z" fill="white"/>
</svg>