<svg width="14" height="14" viewBox="0 0 14 14" fill="none" xmlns="http://www.w3.org/2000/svg">
<path d="M6.3335 9.66732H7.66683V6.86732L8.7335 7.93398L9.66683 7.00065L7.00016 4.33398L4.3335 7.00065L5.26683 7.93398L6.3335 6.86732V9.66732ZM7.00016 13.6673C6.07794 13.6673 5.21127 13.4923 4.40016 13.1423C3.58905 12.7923 2.8835 12.3173 2.2835 11.7173C1.6835 11.1173 1.2085 10.4118 0.858496 9.60065C0.508496 8.78954 0.333496 7.92287 0.333496 7.00065C0.333496 6.07843 0.508496 5.21176 0.858496 4.40065C1.2085 3.58954 1.6835 2.88398 2.2835 2.28398C2.8835 1.68398 3.58905 1.20898 4.40016 0.858984C5.21127 0.508984 6.07794 0.333984 7.00016 0.333984C7.92238 0.333984 8.78905 0.508984 9.60016 0.858984C10.4113 1.20898 11.1168 1.68398 11.7168 2.28398C12.3168 2.88398 12.7918 3.58954 13.1418 4.40065C13.4918 5.21176 13.6668 6.07843 13.6668 7.00065C13.6668 7.92287 13.4918 8.78954 13.1418 9.60065C12.7918 10.4118 12.3168 11.1173 11.7168 11.7173C11.1168 12.3173 10.4113 12.7923 9.60016 13.1423C8.78905 13.4923 7.92238 13.6673 7.00016 13.6673ZM7.00016 12.334C8.48905 12.334 9.75016 11.8173 10.7835 10.784C11.8168 9.75065 12.3335 8.48954 12.3335 7.00065C12.3335 5.51176 11.8168 4.25065 10.7835 3.21732C9.75016 2.18398 8.48905 1.66732 7.00016 1.66732C5.51127 1.66732 4.25016 2.18398 3.21683 3.21732C2.1835 4.25065 1.66683 5.51176 1.66683 7.00065C1.66683 8.48954 2.1835 9.75065 3.21683 10.784C4.25016 11.8173 5.51127 12.334 7.00016 12.334Z" fill="white"/>
</svg>
