<svg width="67" height="68" viewBox="0 0 67 68" fill="none" xmlns="http://www.w3.org/2000/svg">
<path d="M33.5 50.667C34.4444 50.667 35.2361 50.3475 35.875 49.7087C36.5138 49.0698 36.8333 48.2781 36.8333 47.3337C36.8333 46.3892 36.5138 45.5975 35.875 44.9587C35.2361 44.3198 34.4444 44.0003 33.5 44.0003C32.5555 44.0003 31.7638 44.3198 31.125 44.9587C30.4861 45.5975 30.1666 46.3892 30.1666 47.3337C30.1666 48.2781 30.4861 49.0698 31.125 49.7087C31.7638 50.3475 32.5555 50.667 33.5 50.667ZM30.1666 37.3337H36.8333V17.3337H30.1666V37.3337ZM33.5 67.3337C28.8888 67.3337 24.5555 66.4587 20.5 64.7087C16.4444 62.9587 12.9166 60.5837 9.91663 57.5837C6.91663 54.5837 4.54163 51.0559 2.79163 47.0003C1.04163 42.9448 0.166626 38.6114 0.166626 34.0003C0.166626 29.3892 1.04163 25.0559 2.79163 21.0003C4.54163 16.9448 6.91663 13.417 9.91663 10.417C12.9166 7.41699 16.4444 5.04199 20.5 3.29199C24.5555 1.54199 28.8888 0.666992 33.5 0.666992C38.1111 0.666992 42.4444 1.54199 46.5 3.29199C50.5555 5.04199 54.0833 7.41699 57.0833 10.417C60.0833 13.417 62.4583 16.9448 64.2083 21.0003C65.9583 25.0559 66.8333 29.3892 66.8333 34.0003C66.8333 38.6114 65.9583 42.9448 64.2083 47.0003C62.4583 51.0559 60.0833 54.5837 57.0833 57.5837C54.0833 60.5837 50.5555 62.9587 46.5 64.7087C42.4444 66.4587 38.1111 67.3337 33.5 67.3337ZM33.5 60.667C40.9444 60.667 47.25 58.0837 52.4166 52.917C57.5833 47.7503 60.1666 41.4448 60.1666 34.0003C60.1666 26.5559 57.5833 20.2503 52.4166 15.0837C47.25 9.91699 40.9444 7.33366 33.5 7.33366C26.0555 7.33366 19.75 9.91699 14.5833 15.0837C9.41663 20.2503 6.83329 26.5559 6.83329 34.0003C6.83329 41.4448 9.41663 47.7503 14.5833 52.917C19.75 58.0837 26.0555 60.667 33.5 60.667Z" fill="#DA1E28"/>
</svg>
