<svg width="66" height="22" viewBox="0 0 66 22" fill="none" xmlns="http://www.w3.org/2000/svg">
<path d="M0.5 17.8817L1.07018 17.8338C1.64035 17.7858 2.7807 17.6899 3.92105 18.4133C5.0614 19.1368 6.20175 20.6796 7.3421 20.9544C8.48246 21.2291 9.62281 20.2357 10.7632 18.7176C11.9035 17.1995 13.0439 15.1566 14.1842 13.9374C15.3246 12.7183 16.4649 12.323 17.6053 12.3235C18.7456 12.3241 19.886 12.7206 21.0263 12.8987C22.1667 13.0768 23.307 13.0366 24.4474 12.39C25.5877 11.7434 26.7281 10.4903 27.8684 10.9386C29.0088 11.387 30.1491 13.5367 31.2895 14.0984C32.4298 14.6602 33.5702 13.634 34.7105 12.2623C35.8509 10.8906 36.9912 9.17341 38.1316 8.14629C39.2719 7.11917 40.4123 6.7821 41.5526 6.94445C42.693 7.10681 43.8333 7.76857 44.9737 7.74988C46.114 7.7312 47.2544 7.03205 48.3947 7.08602C49.5351 7.13998 50.6754 7.94704 51.8158 8.05449C52.9561 8.16194 54.0965 7.56977 55.2368 6.5584C56.3772 5.54704 57.5175 4.11648 58.6579 3.50484C59.7982 2.89321 60.9386 3.10051 62.0789 2.81953C63.2193 2.53854 64.3596 1.76927 64.9298 1.38463L65.5 1" stroke="#24A148"/>
</svg>
