<svg width="24" height="24" viewBox="0 0 24 24" fill="none" xmlns="http://www.w3.org/2000/svg">
<path d="M11.19 18H12.99V10.8H11.19V18ZM11.9995 8.58C12.2798 8.58 12.515 8.488 12.705 8.304C12.895 8.12 12.99 7.892 12.99 7.62C12.99 7.331 12.8952 7.08875 12.7055 6.89325C12.5159 6.69775 12.2809 6.6 12.0005 6.6C11.7202 6.6 11.485 6.69775 11.295 6.89325C11.105 7.08875 11.01 7.331 11.01 7.62C11.01 7.892 11.1048 8.12 11.2945 8.304C11.4841 8.488 11.7191 8.58 11.9995 8.58ZM12.008 24C10.3533 24 8.7983 23.685 7.34298 23.055C5.88766 22.425 4.615 21.565 3.525 20.475C2.435 19.385 1.575 18.1116 0.945 16.6548C0.315 15.198 0 13.6414 0 11.985C0 10.3286 0.315 8.77203 0.945 7.31523C1.575 5.85841 2.435 4.59 3.525 3.51C4.615 2.43 5.88841 1.575 7.34523 0.945C8.80203 0.315 10.3586 0 12.015 0C13.6714 0 15.228 0.315 16.6848 0.945C18.1416 1.575 19.41 2.43 20.49 3.51C21.57 4.59 22.425 5.86 23.055 7.32C23.685 8.78 24 10.3373 24 11.992C24 13.6467 23.685 15.2017 23.055 16.657C22.425 18.1123 21.57 19.3832 20.49 20.4695C19.41 21.5558 18.14 22.4158 16.68 23.0495C15.22 23.6832 13.6627 24 12.008 24ZM12.015 22.2C14.845 22.2 17.25 21.205 19.23 19.215C21.21 17.225 22.2 14.815 22.2 11.985C22.2 9.155 21.2119 6.75 19.2356 4.77C17.2594 2.79 14.8475 1.8 12 1.8C9.18 1.8 6.775 2.78812 4.785 4.76436C2.795 6.74062 1.8 9.1525 1.8 12C1.8 14.82 2.795 17.225 4.785 19.215C6.775 21.205 9.185 22.2 12.015 22.2Z" fill="white"/>
</svg>
