<svg width="94" height="20" viewBox="0 0 94 20" fill="none" xmlns="http://www.w3.org/2000/svg">
<path d="M3.94538 16.1433V18.0714L8.02592 20L20 20V16.1433L3.94538 16.1433Z" fill="url(#paint0_linear_200_11030)"/>
<path d="M3.93967 16.1446L3.93967 11.8185L16.0605 11.8185L20 7.96184L3.93994 7.96184L3.93967 3.85654L15.9199 3.85654L20 1.92847V0L3.93967 1.40404e-06L0 3.85654L3.58897e-07 7.96184H3.93994L6.96058e-07 11.8185L1.07426e-06 16.1446H3.93967Z" fill="url(#paint1_linear_200_11030)"/>
<path d="M28 20V0H30.5794L35.1651 9.51429L39.7508 0H42.3302V20H39.9801V4.62857L36.0822 12.7143H34.248L30.3502 4.65714V20H28Z" fill="white"/>
<path d="M46.2168 20V0H58.7414V2.17143H48.6243V8.82857H57.8816V11H48.6243V17.8286H58.7414V20H46.2168Z" fill="white"/>
<path d="M68.3315 20V2.17143H62.9433V0H76.1271V2.17143H70.7389V20H68.3315Z" fill="white"/>
<path d="M79.4692 20V0H81.8766V8.62857H91.5925V0H94V20H91.5925V10.8H81.8766V20H79.4692Z" fill="white"/>
<defs>
<linearGradient id="paint0_linear_200_11030" x1="-2.75429e-07" y1="0.10608" x2="21.4783" y2="18.25" gradientUnits="userSpaceOnUse">
<stop stop-color="#DA301F"/>
<stop offset="0.182292" stop-color="#F48946"/>
<stop offset="0.354167" stop-color="#EE3560"/>
<stop offset="0.515625" stop-color="#FA4784"/>
<stop offset="0.666667" stop-color="#FF48C0"/>
<stop offset="0.817708" stop-color="#8E38B5"/>
<stop offset="0.890625" stop-color="#5542BB"/>
<stop offset="1" stop-color="#0051C4"/>
</linearGradient>
<linearGradient id="paint1_linear_200_11030" x1="-2.75429e-07" y1="0.10608" x2="21.4783" y2="18.25" gradientUnits="userSpaceOnUse">
<stop stop-color="#DA301F"/>
<stop offset="0.182292" stop-color="#F48946"/>
<stop offset="0.354167" stop-color="#EE3560"/>
<stop offset="0.515625" stop-color="#FA4784"/>
<stop offset="0.666667" stop-color="#FF48C0"/>
<stop offset="0.817708" stop-color="#8E38B5"/>
<stop offset="0.890625" stop-color="#5542BB"/>
<stop offset="1" stop-color="#0051C4"/>
</linearGradient>
</defs>
</svg>
