<svg width="16" height="16" viewBox="0 0 16 16" fill="none" xmlns="http://www.w3.org/2000/svg">
<path d="M7.99984 13.3337C7.63317 13.3337 7.31928 13.2031 7.05817 12.942C6.79706 12.6809 6.6665 12.367 6.6665 12.0003C6.6665 11.6337 6.79706 11.3198 7.05817 11.0587C7.31928 10.7975 7.63317 10.667 7.99984 10.667C8.3665 10.667 8.68039 10.7975 8.9415 11.0587C9.20262 11.3198 9.33317 11.6337 9.33317 12.0003C9.33317 12.367 9.20262 12.6809 8.9415 12.942C8.68039 13.2031 8.3665 13.3337 7.99984 13.3337ZM7.99984 9.33366C7.63317 9.33366 7.31928 9.2031 7.05817 8.94199C6.79706 8.68088 6.6665 8.36699 6.6665 8.00033C6.6665 7.63366 6.79706 7.31977 7.05817 7.05866C7.31928 6.79755 7.63317 6.66699 7.99984 6.66699C8.3665 6.66699 8.68039 6.79755 8.9415 7.05866C9.20262 7.31977 9.33317 7.63366 9.33317 8.00033C9.33317 8.36699 9.20262 8.68088 8.9415 8.94199C8.68039 9.2031 8.3665 9.33366 7.99984 9.33366ZM7.99984 5.33366C7.63317 5.33366 7.31928 5.2031 7.05817 4.94199C6.79706 4.68088 6.6665 4.36699 6.6665 4.00033C6.6665 3.63366 6.79706 3.31977 7.05817 3.05866C7.31928 2.79755 7.63317 2.66699 7.99984 2.66699C8.3665 2.66699 8.68039 2.79755 8.9415 3.05866C9.20262 3.31977 9.33317 3.63366 9.33317 4.00033C9.33317 4.36699 9.20262 4.68088 8.9415 4.94199C8.68039 5.2031 8.3665 5.33366 7.99984 5.33366Z" fill="white"/>
</svg>
