<svg width="16" height="17" viewBox="0 0 16 17" fill="none" xmlns="http://www.w3.org/2000/svg">
<path d="M10.2002 11.633L11.1335 10.6997L8.66683 8.23301V5.16634H7.3335V8.76634L10.2002 11.633ZM8.00016 15.1663C7.07794 15.1663 6.21127 14.9913 5.40016 14.6413C4.58905 14.2913 3.8835 13.8163 3.2835 13.2163C2.6835 12.6163 2.2085 11.9108 1.8585 11.0997C1.5085 10.2886 1.3335 9.4219 1.3335 8.49967C1.3335 7.57745 1.5085 6.71079 1.8585 5.89967C2.2085 5.08856 2.6835 4.38301 3.2835 3.78301C3.8835 3.18301 4.58905 2.70801 5.40016 2.35801C6.21127 2.00801 7.07794 1.83301 8.00016 1.83301C8.92238 1.83301 9.78905 2.00801 10.6002 2.35801C11.4113 2.70801 12.1168 3.18301 12.7168 3.78301C13.3168 4.38301 13.7918 5.08856 14.1418 5.89967C14.4918 6.71079 14.6668 7.57745 14.6668 8.49967C14.6668 9.4219 14.4918 10.2886 14.1418 11.0997C13.7918 11.9108 13.3168 12.6163 12.7168 13.2163C12.1168 13.8163 11.4113 14.2913 10.6002 14.6413C9.78905 14.9913 8.92238 15.1663 8.00016 15.1663ZM8.00016 13.833C9.47794 13.833 10.7363 13.3136 11.7752 12.2747C12.8141 11.2358 13.3335 9.97745 13.3335 8.49967C13.3335 7.0219 12.8141 5.76356 11.7752 4.72467C10.7363 3.68579 9.47794 3.16634 8.00016 3.16634C6.52238 3.16634 5.26405 3.68579 4.22516 4.72467C3.18627 5.76356 2.66683 7.0219 2.66683 8.49967C2.66683 9.97745 3.18627 11.2358 4.22516 12.2747C5.26405 13.3136 6.52238 13.833 8.00016 13.833Z" fill="#FFC107"/>
</svg>
