<svg width="12" height="12" viewBox="0 0 12 12" fill="none" xmlns="http://www.w3.org/2000/svg">
<path d="M0.491211 11.3337V10.0003H2.32454L2.05788 9.76699C1.4801 9.25588 1.07454 8.67255 0.841211 8.01699C0.607878 7.36144 0.491211 6.70033 0.491211 6.03366C0.491211 4.80033 0.860655 3.7031 1.59954 2.74199C2.33843 1.78088 3.30232 1.14477 4.49121 0.833659V2.23366C3.69121 2.52255 3.04677 3.01421 2.55788 3.70866C2.06899 4.4031 1.82454 5.1781 1.82454 6.03366C1.82454 6.53366 1.91899 7.01977 2.10788 7.49199C2.29677 7.96421 2.59121 8.40033 2.99121 8.80033L3.15788 8.96699V7.33366H4.49121V11.3337H0.491211ZM7.15788 11.167V9.76699C7.95788 9.4781 8.60232 8.98644 9.09121 8.29199C9.5801 7.59755 9.82454 6.82255 9.82454 5.96699C9.82454 5.46699 9.7301 4.98088 9.54121 4.50866C9.35232 4.03644 9.05788 3.60033 8.65788 3.20033L8.49121 3.03366V4.66699H7.15788V0.666992H11.1579V2.00033H9.32454L9.59121 2.23366C10.1357 2.7781 10.5329 3.36977 10.7829 4.00866C11.0329 4.64755 11.1579 5.30033 11.1579 5.96699C11.1579 7.20033 10.7884 8.29755 10.0495 9.25866C9.31066 10.2198 8.34677 10.8559 7.15788 11.167Z" fill="#2196F3"/>
</svg>
