<svg width="64" height="64" viewBox="0 0 64 64" fill="none" xmlns="http://www.w3.org/2000/svg">
<g id="warning_FILL0_wght400_GRAD0_opsz24 (5) 1">
<path id="Vector" d="M2.6665 55.9997L31.9998 5.33301L61.3332 55.9997H2.6665ZM11.8665 50.6663H52.1332L31.9998 15.9997L11.8665 50.6663ZM31.9998 47.9997C32.7554 47.9997 33.3887 47.7441 33.8998 47.233C34.4109 46.7219 34.6665 46.0886 34.6665 45.333C34.6665 44.5775 34.4109 43.9441 33.8998 43.433C33.3887 42.9219 32.7554 42.6663 31.9998 42.6663C31.2443 42.6663 30.611 42.9219 30.0998 43.433C29.5887 43.9441 29.3332 44.5775 29.3332 45.333C29.3332 46.0886 29.5887 46.7219 30.0998 47.233C30.611 47.7441 31.2443 47.9997 31.9998 47.9997ZM29.3332 39.9997H34.6665V26.6663H29.3332V39.9997Z" fill="#DA1E28"/>
</g>
</svg>
